<mxfile host="app.diagrams.net" modified="2023-07-07T13:34:56.487Z" agent="Mozilla/5.0 (Windows NT 10.0; Win64; x64) AppleWebKit/537.36 (KHTML, like Gecko) Chrome/114.0.0.0 Safari/537.36" etag="o5LZsUDKhzyVFj9R0RgI" version="21.5.2" type="device">
  <diagram name="Page-1" id="3Qi1Yb2Po_b-cBCTjh-g">
    <mxGraphModel dx="880" dy="490" grid="1" gridSize="10" guides="1" tooltips="1" connect="1" arrows="1" fold="1" page="1" pageScale="1" pageWidth="827" pageHeight="1169" math="0" shadow="0">
      <root>
        <mxCell id="0" />
        <mxCell id="1" parent="0" />
        <mxCell id="I_S9l7H5llAiDEKkvUac-1" value="" style="rounded=0;whiteSpace=wrap;html=1;" vertex="1" parent="1">
          <mxGeometry x="60" y="40" width="720" height="270" as="geometry" />
        </mxCell>
        <mxCell id="I_S9l7H5llAiDEKkvUac-2" value="" style="image;aspect=fixed;html=1;points=[];align=center;fontSize=12;image=img/lib/azure2/other/SSH_Keys.svg;" vertex="1" parent="1">
          <mxGeometry x="250" y="250" width="34" height="30" as="geometry" />
        </mxCell>
        <mxCell id="I_S9l7H5llAiDEKkvUac-15" style="edgeStyle=orthogonalEdgeStyle;rounded=0;orthogonalLoop=1;jettySize=auto;html=1;exitX=1;exitY=0.5;exitDx=0;exitDy=0;exitPerimeter=0;entryX=0.552;entryY=1.006;entryDx=0;entryDy=0;entryPerimeter=0;dashed=1;dashPattern=1 4;shape=link;" edge="1" parent="1" source="I_S9l7H5llAiDEKkvUac-4" target="I_S9l7H5llAiDEKkvUac-12">
          <mxGeometry relative="1" as="geometry" />
        </mxCell>
        <mxCell id="I_S9l7H5llAiDEKkvUac-4" value="" style="outlineConnect=0;dashed=0;verticalLabelPosition=bottom;verticalAlign=top;align=center;html=1;shape=mxgraph.aws3.ec2;fillColor=#F58534;gradientColor=none;" vertex="1" parent="1">
          <mxGeometry x="373.67" y="210" width="58.33" height="70" as="geometry" />
        </mxCell>
        <mxCell id="I_S9l7H5llAiDEKkvUac-13" style="edgeStyle=orthogonalEdgeStyle;rounded=0;orthogonalLoop=1;jettySize=auto;html=1;exitX=1;exitY=0.5;exitDx=0;exitDy=0;exitPerimeter=0;" edge="1" parent="1" source="I_S9l7H5llAiDEKkvUac-5" target="I_S9l7H5llAiDEKkvUac-12">
          <mxGeometry relative="1" as="geometry" />
        </mxCell>
        <mxCell id="I_S9l7H5llAiDEKkvUac-5" value="" style="sketch=0;points=[[0,0,0],[0.25,0,0],[0.5,0,0],[0.75,0,0],[1,0,0],[0,1,0],[0.25,1,0],[0.5,1,0],[0.75,1,0],[1,1,0],[0,0.25,0],[0,0.5,0],[0,0.75,0],[1,0.25,0],[1,0.5,0],[1,0.75,0]];points=[[0,0,0],[0.25,0,0],[0.5,0,0],[0.75,0,0],[1,0,0],[0,1,0],[0.25,1,0],[0.5,1,0],[0.75,1,0],[1,1,0],[0,0.25,0],[0,0.5,0],[0,0.75,0],[1,0.25,0],[1,0.5,0],[1,0.75,0]];outlineConnect=0;fontColor=#232F3E;gradientColor=#F34482;gradientDirection=north;fillColor=#BC1356;strokeColor=#ffffff;dashed=0;verticalLabelPosition=bottom;verticalAlign=top;align=center;html=1;fontSize=12;fontStyle=0;aspect=fixed;shape=mxgraph.aws4.resourceIcon;resIcon=mxgraph.aws4.systems_manager;" vertex="1" parent="1">
          <mxGeometry x="373.67" y="72" width="58" height="58" as="geometry" />
        </mxCell>
        <mxCell id="I_S9l7H5llAiDEKkvUac-8" style="edgeStyle=orthogonalEdgeStyle;rounded=0;orthogonalLoop=1;jettySize=auto;html=1;exitX=0.5;exitY=1;exitDx=0;exitDy=0;exitPerimeter=0;entryX=0;entryY=0.5;entryDx=0;entryDy=0;entryPerimeter=0;" edge="1" parent="1" source="I_S9l7H5llAiDEKkvUac-7" target="I_S9l7H5llAiDEKkvUac-4">
          <mxGeometry relative="1" as="geometry" />
        </mxCell>
        <mxCell id="I_S9l7H5llAiDEKkvUac-9" style="edgeStyle=orthogonalEdgeStyle;rounded=0;orthogonalLoop=1;jettySize=auto;html=1;exitX=0.5;exitY=0;exitDx=0;exitDy=0;exitPerimeter=0;entryX=0;entryY=0.5;entryDx=0;entryDy=0;entryPerimeter=0;" edge="1" parent="1" source="I_S9l7H5llAiDEKkvUac-7" target="I_S9l7H5llAiDEKkvUac-5">
          <mxGeometry relative="1" as="geometry" />
        </mxCell>
        <mxCell id="I_S9l7H5llAiDEKkvUac-7" value="" style="outlineConnect=0;dashed=0;verticalLabelPosition=bottom;verticalAlign=top;align=center;html=1;shape=mxgraph.aws3.cloudformation;fillColor=#759C3E;gradientColor=none;" vertex="1" parent="1">
          <mxGeometry x="160" y="130" width="76.5" height="93" as="geometry" />
        </mxCell>
        <mxCell id="I_S9l7H5llAiDEKkvUac-11" value="" style="shadow=0;dashed=0;html=1;strokeColor=none;fillColor=#4495D1;labelPosition=center;verticalLabelPosition=bottom;verticalAlign=top;align=center;outlineConnect=0;shape=mxgraph.veeam.2d.private_key;" vertex="1" parent="1">
          <mxGeometry x="253.57" y="70" width="30.43" height="27.8" as="geometry" />
        </mxCell>
        <mxCell id="I_S9l7H5llAiDEKkvUac-12" value="" style="image;points=[];aspect=fixed;html=1;align=center;shadow=0;dashed=0;image=img/lib/allied_telesis/computer_and_terminals/Personal_Computer.svg;" vertex="1" parent="1">
          <mxGeometry x="610" y="133.55" width="63.38" height="85.9" as="geometry" />
        </mxCell>
        <mxCell id="I_S9l7H5llAiDEKkvUac-16" value="" style="shadow=0;dashed=0;html=1;strokeColor=none;fillColor=#4495D1;labelPosition=center;verticalLabelPosition=bottom;verticalAlign=top;align=center;outlineConnect=0;shape=mxgraph.veeam.2d.private_key;" vertex="1" parent="1">
          <mxGeometry x="540" y="70" width="30.43" height="27.8" as="geometry" />
        </mxCell>
        <mxCell id="I_S9l7H5llAiDEKkvUac-17" value="CloudFormation" style="text;html=1;strokeColor=none;fillColor=none;align=center;verticalAlign=middle;whiteSpace=wrap;rounded=0;fontStyle=1;fontSize=15;" vertex="1" parent="1">
          <mxGeometry x="80" y="219.45" width="100" height="30" as="geometry" />
        </mxCell>
        <mxCell id="I_S9l7H5llAiDEKkvUac-19" value="AWS Systems Manager" style="text;html=1;strokeColor=none;fillColor=none;align=center;verticalAlign=middle;whiteSpace=wrap;rounded=0;fontStyle=1;fontSize=15;" vertex="1" parent="1">
          <mxGeometry x="309.26" y="40" width="187.16" height="30" as="geometry" />
        </mxCell>
        <mxCell id="I_S9l7H5llAiDEKkvUac-20" value="EC2 Instance" style="text;html=1;strokeColor=none;fillColor=none;align=center;verticalAlign=middle;whiteSpace=wrap;rounded=0;fontStyle=1;fontSize=15;" vertex="1" parent="1">
          <mxGeometry x="352.84000000000003" y="280" width="100" height="30" as="geometry" />
        </mxCell>
        <mxCell id="I_S9l7H5llAiDEKkvUac-21" value="Local&lt;br&gt;Machine" style="text;html=1;strokeColor=none;fillColor=none;align=left;verticalAlign=middle;whiteSpace=wrap;rounded=0;fontStyle=1;fontSize=15;" vertex="1" parent="1">
          <mxGeometry x="680" y="155" width="70" height="40" as="geometry" />
        </mxCell>
        <mxCell id="I_S9l7H5llAiDEKkvUac-22" value="Private Key" style="text;html=1;strokeColor=none;fillColor=none;align=center;verticalAlign=middle;whiteSpace=wrap;rounded=0;fontStyle=0;fontSize=11;" vertex="1" parent="1">
          <mxGeometry x="183.5" y="67.8" width="66.5" height="30" as="geometry" />
        </mxCell>
        <mxCell id="I_S9l7H5llAiDEKkvUac-26" value="Private Key" style="text;html=1;strokeColor=none;fillColor=none;align=center;verticalAlign=middle;whiteSpace=wrap;rounded=0;fontStyle=0;fontSize=11;" vertex="1" parent="1">
          <mxGeometry x="570.4300000000001" y="67.8" width="66.5" height="30" as="geometry" />
        </mxCell>
        <mxCell id="I_S9l7H5llAiDEKkvUac-27" value="Public Key" style="text;html=1;strokeColor=none;fillColor=none;align=center;verticalAlign=middle;whiteSpace=wrap;rounded=0;fontStyle=0;fontSize=11;" vertex="1" parent="1">
          <mxGeometry x="233.75000000000006" y="280" width="66.5" height="30" as="geometry" />
        </mxCell>
        <mxCell id="I_S9l7H5llAiDEKkvUac-28" value="SSH Connection" style="text;html=1;strokeColor=none;fillColor=none;align=center;verticalAlign=middle;whiteSpace=wrap;rounded=0;fontStyle=0;fontSize=11;" vertex="1" parent="1">
          <mxGeometry x="521.96" y="249.45" width="108.04" height="30" as="geometry" />
        </mxCell>
      </root>
    </mxGraphModel>
  </diagram>
</mxfile>
